<svg width="32" height="33" viewBox="0 0 32 33" fill="none" xmlns="http://www.w3.org/2000/svg">
<rect y="0.5" width="32" height="32" rx="8" fill="#3B82F6"/>
<path d="M18.4993 25.4584H13.4993C8.97435 25.4584 7.04102 23.525 7.04102 19V14C7.04102 9.47502 8.97435 7.54169 13.4993 7.54169H17.666C18.0077 7.54169 18.291 7.82502 18.291 8.16669C18.291 8.50835 18.0077 8.79169 17.666 8.79169H13.4993C9.65768 8.79169 8.29102 10.1584 8.29102 14V19C8.29102 22.8417 9.65768 24.2084 13.4993 24.2084H18.4993C22.341 24.2084 23.7077 22.8417 23.7077 19V14.8334C23.7077 14.4917 23.991 14.2084 24.3327 14.2084C24.6744 14.2084 24.9577 14.4917 24.9577 14.8334V19C24.9577 23.525 23.0243 25.4584 18.4993 25.4584Z" fill="white"/>
<path d="M24.3327 15.4583H20.9993C18.1493 15.4583 17.041 14.35 17.041 11.5V8.16668C17.041 7.91668 17.191 7.68334 17.4243 7.59168C17.6577 7.49168 17.9243 7.55001 18.1077 7.72501L24.7743 14.3917C24.9493 14.5667 25.0077 14.8417 24.9077 15.075C24.8077 15.3083 24.5827 15.4583 24.3327 15.4583ZM18.291 9.67501V11.5C18.291 13.65 18.8493 14.2083 20.9993 14.2083H22.8243L18.291 9.67501Z" fill="white"/>
<path d="M16.834 17.9583H11.834C11.4923 17.9583 11.209 17.675 11.209 17.3333C11.209 16.9916 11.4923 16.7083 11.834 16.7083H16.834C17.1757 16.7083 17.459 16.9916 17.459 17.3333C17.459 17.675 17.1757 17.9583 16.834 17.9583Z" fill="white"/>
<path d="M15.1673 21.2917H11.834C11.4923 21.2917 11.209 21.0084 11.209 20.6667C11.209 20.325 11.4923 20.0417 11.834 20.0417H15.1673C15.509 20.0417 15.7923 20.325 15.7923 20.6667C15.7923 21.0084 15.509 21.2917 15.1673 21.2917Z" fill="white"/>
</svg>
