<svg width="32" height="33" viewBox="0 0 32 33" fill="none" xmlns="http://www.w3.org/2000/svg">
<rect y="0.5" width="32" height="32" rx="8" fill="#51B6FF" fill-opacity="0.89"/>
<path d="M13.5009 15.15C14.5963 15.15 15.4842 14.262 15.4842 13.1667C15.4842 12.0713 14.5963 11.1833 13.5009 11.1833C12.4055 11.1833 11.5176 12.0713 11.5176 13.1667C11.5176 14.262 12.4055 15.15 13.5009 15.15Z" fill="white"/>
<path d="M23.4743 13.1667H23.0827V17.0084L22.9743 16.9167C22.3244 16.3584 21.2743 16.3584 20.6243 16.9167L17.1577 19.8917C16.5077 20.45 15.4577 20.45 14.8077 19.8917L14.5243 19.6584C13.9327 19.1417 12.991 19.0917 12.3243 19.5417L9.20768 21.6334C9.02435 21.1667 8.91602 20.625 8.91602 19.9917V13.0084C8.91602 10.6584 10.1577 9.41669 12.5077 9.41669H19.3327V9.02502C19.3327 8.69169 19.391 8.40835 19.5243 8.16669H12.5077C9.47435 8.16669 7.66602 9.97502 7.66602 13.0084V19.9917C7.66602 20.9 7.82435 21.6917 8.13268 22.3584C8.84935 23.9417 10.3827 24.8334 12.5077 24.8334H19.491C22.5244 24.8334 24.3327 23.025 24.3327 19.9917V12.975C24.091 13.1084 23.8077 13.1667 23.4743 13.1667Z" fill="white"/>
<path d="M23.4757 7.33331H21.0257C20.3007 7.33331 19.7673 7.63331 19.5257 8.16665C19.3923 8.40831 19.334 8.69165 19.334 9.02498V9.41665V11.475C19.334 12.5333 19.9673 13.1666 21.0257 13.1666H23.084H23.4757C23.809 13.1666 24.0923 13.1083 24.334 12.975C24.8673 12.7333 25.1673 12.2 25.1673 11.475V9.02498C25.1673 7.96665 24.534 7.33331 23.4757 7.33331ZM22.9173 11.675C22.6507 11.8333 22.3923 11.9166 22.2507 11.9166C21.8757 11.9166 20.809 11.4 20.4923 10.4C20.4423 10.25 20.4173 10.0833 20.4173 9.92498C20.4173 9.78331 20.434 9.64165 20.4757 9.50831C20.584 9.11665 20.8423 8.77498 21.2757 8.63331C21.4423 8.58331 21.6173 8.56665 21.7757 8.59998C21.9423 8.62498 22.1007 8.69165 22.2423 8.79998C22.509 8.59165 22.8757 8.52498 23.2257 8.63331C23.984 8.88331 24.2257 9.74165 24.009 10.4C23.9757 10.5 23.934 10.6 23.884 10.6916C23.659 11.1416 23.2757 11.475 22.9173 11.675Z" fill="white"/>
</svg>
