<svg width="32" height="33" viewBox="0 0 32 33" fill="none" xmlns="http://www.w3.org/2000/svg">
<rect y="0.5" width="32" height="32" rx="8" fill="#22C55E"/>
<path fill-rule="evenodd" clip-rule="evenodd" d="M8.13228 13.0924C6.55918 13.6187 6.5026 15.823 8.04664 16.4294L13.6736 18.6392C13.7655 18.6753 13.8382 18.748 13.8743 18.8399L16.0842 24.4669C16.6905 26.0109 18.8948 25.9543 19.4212 24.3812L23.9679 10.7932C24.4329 9.40366 23.1099 8.08066 21.7203 8.54562L8.13228 13.0924ZM8.56596 15.107C8.25715 14.9857 8.26846 14.5449 8.58309 14.4396L21.0971 10.2523L14.0778 17.2716L8.56596 15.107ZM15.1487 18.2098C15.1659 18.246 15.1819 18.283 15.1967 18.3206L17.4065 23.9476C17.5278 24.2564 17.9686 24.2451 18.0739 23.9304L22.4218 10.9367L15.1487 18.2098Z" fill="white"/>
</svg>
