<svg width="32" height="32" viewBox="0 0 32 32" fill="none" xmlns="http://www.w3.org/2000/svg">
<rect width="32" height="32" rx="8" fill="#C672E5"/>
<path d="M20.166 23.7084H11.8327C8.79102 23.7084 7.04102 21.9584 7.04102 18.9167V13.0834C7.04102 10.0417 8.79102 8.29169 11.8327 8.29169H20.166C23.2077 8.29169 24.9577 10.0417 24.9577 13.0834V18.9167C24.9577 21.9584 23.2077 23.7084 20.166 23.7084ZM11.8327 9.54169C9.44935 9.54169 8.29102 10.7 8.29102 13.0834V18.9167C8.29102 21.3 9.44935 22.4584 11.8327 22.4584H20.166C22.5493 22.4584 23.7077 21.3 23.7077 18.9167V13.0834C23.7077 10.7 22.5493 9.54169 20.166 9.54169H11.8327Z" fill="white"/>
<path d="M15.999 16.725C15.299 16.725 14.5907 16.5083 14.049 16.0666L11.4407 13.9833C11.174 13.7666 11.124 13.375 11.3407 13.1083C11.5573 12.8416 11.949 12.7916 12.2157 13.0083L14.824 15.0916C15.4573 15.6 16.5323 15.6 17.1657 15.0916L19.774 13.0083C20.0407 12.7916 20.4407 12.8333 20.649 13.1083C20.8657 13.375 20.824 13.775 20.549 13.9833L17.9407 16.0666C17.4073 16.5083 16.699 16.725 15.999 16.725Z" fill="white"/>
</svg>
