<svg width="32" height="32" viewBox="0 0 32 32" fill="none" xmlns="http://www.w3.org/2000/svg">
<rect width="32" height="32" rx="8" fill="#F01758"/>
<path d="M19.3341 24.5999C19.0508 24.5999 18.7758 24.5166 18.5341 24.3583L14.9841 21.9916H13.4091C13.2175 21.9916 13.0341 21.8999 12.9174 21.7499C12.8008 21.5916 12.7591 21.3916 12.8091 21.2083C12.8591 21.0083 12.8841 20.8083 12.8841 20.5916C12.8841 19.9249 12.6341 19.2833 12.1841 18.7833C11.6758 18.2083 10.9508 17.8833 10.1758 17.8833C9.43411 17.8833 8.75077 18.1749 8.2341 18.6999C8.07577 18.8666 7.83411 18.9249 7.61744 18.8666C7.40078 18.7999 7.22578 18.6249 7.17578 18.3999C7.09244 18.0333 7.05078 17.6333 7.05078 17.1999V12.1999C7.05078 9.33326 8.97578 7.40826 11.8424 7.40826H20.1758C23.0424 7.40826 24.9674 9.33326 24.9674 12.1999V17.1999C24.9674 18.5916 24.5091 19.7916 23.6341 20.6666C22.9008 21.3999 21.9258 21.8416 20.8008 21.9583V23.1416C20.8008 23.6833 20.5008 24.1749 20.0258 24.4333C19.8008 24.5416 19.5674 24.5999 19.3341 24.5999ZM14.1258 20.7333H15.1674C15.2924 20.7333 15.4091 20.7666 15.5175 20.8416L19.2258 23.3166C19.3174 23.375 19.3924 23.3499 19.4341 23.3249C19.4758 23.2999 19.5508 23.2499 19.5508 23.1333V21.3583C19.5508 21.0166 19.8341 20.7333 20.1758 20.7333C21.2341 20.7333 22.1258 20.4 22.7508 19.775C23.3841 19.1416 23.7174 18.2499 23.7174 17.1916V12.1916C23.7174 10.0416 22.3258 8.64992 20.1758 8.64992H11.8424C9.69245 8.64992 8.30078 10.0416 8.30078 12.1916V17.0916C8.86745 16.7833 9.50911 16.6249 10.1758 16.6249C11.3091 16.6249 12.3841 17.1083 13.1174 17.9416C13.7674 18.6666 14.1341 19.5999 14.1341 20.5833C14.1258 20.6333 14.1258 20.6833 14.1258 20.7333Z" fill="white"/>
<path d="M10.1673 24.5417C7.98398 24.5417 6.20898 22.7667 6.20898 20.5833C6.20898 19.3667 6.75065 18.2416 7.69232 17.4916C8.39232 16.9333 9.27565 16.625 10.1673 16.625C12.3507 16.625 14.1257 18.4 14.1257 20.5833C14.1257 21.7167 13.634 22.8 12.7757 23.55C12.0507 24.1917 11.1257 24.5417 10.1673 24.5417ZM10.1673 17.875C9.55065 17.875 8.96732 18.0833 8.47565 18.475C7.83399 18.9833 7.45898 19.7583 7.45898 20.5833C7.45898 22.075 8.67565 23.2917 10.1673 23.2917C10.8173 23.2917 11.4506 23.05 11.959 22.6167C12.5423 22.1 12.8757 21.3667 12.8757 20.5833C12.8757 19.0917 11.659 17.875 10.1673 17.875Z" fill="white"/>
<path d="M9.33259 22.0417C9.12426 22.0417 8.91592 21.9334 8.79925 21.7417C8.62425 21.4417 8.71592 21.0583 9.01592 20.8833L9.7576 20.4417V19.5417C9.7576 19.2 10.0409 18.9167 10.3826 18.9167C10.7243 18.9167 11.0076 19.2 11.0076 19.5417V20.7917C11.0076 21.0084 10.8909 21.2167 10.7076 21.325L9.66592 21.95C9.54926 22.0167 9.44093 22.0417 9.33259 22.0417Z" fill="white"/>
<path d="M18.9173 15.375H13.084C12.7423 15.375 12.459 15.0917 12.459 14.75C12.459 14.4083 12.7423 14.125 13.084 14.125H18.9173C19.259 14.125 19.5423 14.4083 19.5423 14.75C19.5423 15.0917 19.259 15.375 18.9173 15.375Z" fill="white"/>
</svg>
