<svg width="16" height="16" viewBox="0 0 16 16" fill="none" xmlns="http://www.w3.org/2000/svg">
<path d="M6.66052 15.0333C6.62718 15.0333 6.59385 15.0333 6.56051 15.02C4.00718 14.5 1.93385 12.62 1.16052 10.1267C1.08052 9.85999 1.22719 9.57999 1.48719 9.49999C1.75385 9.41999 2.03385 9.56666 2.11385 9.82666C2.78052 11.9733 4.56052 13.5867 6.76052 14.0333C7.03385 14.0867 7.20718 14.3533 7.14718 14.6267C7.10052 14.8667 6.88718 15.0333 6.66052 15.0333Z" fill="#444859"/>
<path d="M14.6335 7.81998C14.3801 7.81998 14.1601 7.62665 14.1335 7.37331C13.8135 4.21331 11.1735 1.83331 8.00015 1.83331C4.82015 1.83331 2.18682 4.21331 1.86682 7.36665C1.84015 7.63998 1.60015 7.84665 1.32015 7.81331C1.04682 7.78665 0.846812 7.53998 0.873479 7.26665C1.24681 3.59998 4.31348 0.833313 8.00015 0.833313C11.6935 0.833313 14.7601 3.59998 15.1268 7.26665C15.1535 7.53998 14.9535 7.78665 14.6801 7.81331C14.6668 7.81998 14.6468 7.81998 14.6335 7.81998Z" fill="#353535"/>
<path d="M9.34006 15.0333C9.10673 15.0333 8.90006 14.8733 8.85339 14.6333C8.80006 14.36 8.97339 14.1 9.24006 14.0467C11.4267 13.6 13.2067 12 13.8801 9.86667C13.9601 9.6 14.2467 9.45333 14.5067 9.54C14.7734 9.62 14.9134 9.90666 14.8334 10.1667C14.0467 12.6467 11.9801 14.5067 9.44006 15.0267C9.40673 15.0267 9.37339 15.0333 9.34006 15.0333Z" fill="#353535"/>
</svg>
