<svg width="32" height="33" viewBox="0 0 32 33" fill="none" xmlns="http://www.w3.org/2000/svg">
<rect y="0.5" width="32" height="32" rx="8" fill="#FFA115" fill-opacity="0.89"/>
<path fill-rule="evenodd" clip-rule="evenodd" d="M16 10.6667C12.7783 10.6667 10.1667 13.2783 10.1667 16.5C10.1667 19.7217 12.7783 22.3333 16 22.3333C17.0947 22.3333 18.1167 22.0326 18.9905 21.5096C19.1841 21.3938 19.4163 21.3614 19.6341 21.4198L21.3951 21.8916L20.9228 20.129C20.8645 19.9114 20.8968 19.6795 21.0123 19.486C21.5336 18.6132 21.8333 17.5929 21.8333 16.5C21.8333 13.2783 19.2217 10.6667 16 10.6667ZM8.5 16.5C8.5 12.3579 11.8579 9 16 9C20.1421 9 23.5 12.3579 23.5 16.5C23.5 17.7733 23.182 18.9745 22.6208 20.0263L23.3786 22.8544C23.4556 23.142 23.3734 23.4489 23.1629 23.6594C22.9524 23.8699 22.6455 23.9521 22.358 23.8751L19.5319 23.1178C18.4787 23.6809 17.2756 24 16 24C11.8579 24 8.5 20.6421 8.5 16.5Z" fill="white"/>
</svg>
